<?xml version="1.0" encoding="UTF-8" standalone="no"?><!-- Generator: Gravit.io --><svg xmlns="http://www.w3.org/2000/svg" xmlns:xlink="http://www.w3.org/1999/xlink" style="isolation:isolate" viewBox="0 0 64 64" width="64pt" height="64pt"><defs><clipPath id="_clipPath_3wBWItjIxGQcxVrOYnzwFbgAfQkAXCBT"><rect width="64" height="64"/></clipPath></defs><g clip-path="url(#_clipPath_3wBWItjIxGQcxVrOYnzwFbgAfQkAXCBT)"><clipPath id="_clipPath_3K7fzXb38ZGNYs29ldlSDlWtUilkGWVV"><rect x="0" y="0" width="64" height="64" transform="matrix(1,0,0,1,0,0)" fill="rgb(255,255,255)"/></clipPath><g clip-path="url(#_clipPath_3K7fzXb38ZGNYs29ldlSDlWtUilkGWVV)"><g><path d=" M 39.111 7.01 Q 39.18 7 39.25 6.991 L 48.92 5.935 Q 45.975 1.019 34.057 5.187 L 34.057 5.187 L 34.057 5.187 L 34.057 5.187 Q 33.444 5.401 32.907 5.598 C 32.498 5.573 32.086 5.56 31.671 5.56 C 21.466 5.56 12.957 13.344 11.108 23.631 C 10.145 22.656 8.972 22.083 7.707 22.083 C 4.437 22.083 1.782 25.91 1.782 30.625 L 1.782 30.625 L 1.782 30.625 C 1.782 35.339 4.437 39.166 7.707 39.166 C 9.524 39.166 11.151 37.985 12.237 36.125 C 15.331 44.316 22.871 50.106 31.671 50.106 C 40.737 50.106 48.464 43.962 51.372 35.378 L 51.372 35.378 C 52.435 37.662 54.243 39.166 56.293 39.166 C 59.563 39.166 62.218 35.339 62.218 30.625 C 62.218 25.91 59.563 22.083 56.293 22.083 C 54.774 22.083 53.387 22.909 52.339 24.268 C 51.493 18.686 48.695 13.795 44.715 10.416 L 44.715 10.416 L 52.404 11.044 Q 50.484 6.051 39.699 7.259 C 39.504 7.173 39.308 7.09 39.111 7.01 Z " fill-rule="evenodd" fill="rgb(92,77,77)"/><path d=" M 17.121 42.646 C 18.372 32.547 23.641 24.121 31.671 24.121 C 39.701 24.121 45.483 32.465 46.22 42.646 C 47.377 58.627 39.209 59.831 31.179 59.831 C 23.149 59.831 15.124 58.778 17.121 42.646 Z " fill="rgb(169,104,81)"/><path d=" M 16.127 25.964 C 16.127 21.439 22.682 24.193 24.728 20.32 C 26.864 16.276 31.671 20.572 31.671 25.097 C 31.671 29.622 27.806 33.296 23.046 33.296 C 18.286 33.296 16.127 30.489 16.127 25.964 Z " fill="rgb(169,104,81)"/><path d=" M 47.215 25.964 C 47.215 21.439 40.659 24.193 38.614 20.32 C 36.478 16.276 31.671 20.572 31.671 25.097 C 31.671 29.622 35.535 33.296 40.295 33.296 C 45.055 33.296 47.215 30.489 47.215 25.964 Z " fill="rgb(169,104,81)"/><ellipse vector-effect="non-scaling-stroke" cx="27.654869020305703" cy="27.399371075645462" rx="2.830904328370817" ry="2.3021873499546004" fill="rgb(33,23,23)"/><ellipse vector-effect="non-scaling-stroke" cx="35.5550671459917" cy="27.399371075645462" rx="2.8309043283708135" ry="2.3021873499546004" fill="rgb(33,23,23)"/><ellipse vector-effect="non-scaling-stroke" cx="30.571287402462467" cy="34.48659903657955" rx="0.9216897813300342" ry="1.190675878765994" fill="rgb(33,23,23)"/><ellipse vector-effect="non-scaling-stroke" cx="32.58569507269445" cy="34.48659903657955" rx="0.921689781330036" ry="1.190675878765994" fill="rgb(33,23,23)"/><path d=" M 25.642 26.542 C 25.551 26.345 25.694 26.076 25.961 25.939 C 26.228 25.803 26.518 25.852 26.609 26.048 C 26.7 26.244 26.557 26.514 26.29 26.65 C 26.023 26.786 25.733 26.738 25.642 26.542 Z " fill="rgb(235,235,235)"/><path d=" M 33.383 26.542 C 33.292 26.345 33.435 26.076 33.702 25.939 C 33.969 25.803 34.259 25.852 34.35 26.048 C 34.441 26.244 34.298 26.514 34.031 26.65 C 33.764 26.786 33.474 26.738 33.383 26.542 Z " fill="rgb(235,235,235)"/><path d=" M 19.352 49.671 C 19.397 47.6 24.652 52.723 31.179 52.723 C 37.706 52.723 43.049 47.526 43.005 49.671 C 42.978 50.981 38.02 55.316 31.493 55.316 C 24.966 55.316 19.324 50.981 19.352 49.671 Z " fill="rgb(33,23,23)"/></g></g></g></svg>