<?xml version="1.0" encoding="UTF-8" standalone="no"?><!-- Generator: Gravit.io --><svg xmlns="http://www.w3.org/2000/svg" xmlns:xlink="http://www.w3.org/1999/xlink" style="isolation:isolate" viewBox="0 0 512 512" width="512pt" height="512pt"><defs><clipPath id="_clipPath_EvRHPAjVaxknkn7RQ3uDmDnMPbeBdslN"><rect width="512" height="512"/></clipPath></defs><g clip-path="url(#_clipPath_EvRHPAjVaxknkn7RQ3uDmDnMPbeBdslN)"><clipPath id="_clipPath_5vkW8E3pDAKSgBSouX33t0PD9bOCoWGu"><rect x="0" y="0" width="152" height="152" transform="matrix(1,0,0,1,0,0)" fill="rgb(255,255,255)"/></clipPath><g clip-path="url(#_clipPath_5vkW8E3pDAKSgBSouX33t0PD9bOCoWGu)"><g><path d=" M 92.888 16.648 Q 93.053 16.626 93.219 16.603 L 116.184 14.095 Q 109.19 2.419 80.887 12.318 L 80.887 12.318 L 80.887 12.318 L 80.887 12.318 Q 79.429 12.828 78.155 13.296 C 77.183 13.236 76.204 13.206 75.218 13.206 C 50.982 13.206 30.773 31.693 26.38 56.124 C 24.094 53.807 21.308 52.447 18.304 52.447 C 10.537 52.447 4.232 61.537 4.232 72.733 L 4.232 72.733 L 4.232 72.733 C 4.232 83.93 10.537 93.02 18.304 93.02 C 22.619 93.02 26.483 90.214 29.064 85.798 C 36.412 105.251 54.317 119.001 75.218 119.001 C 96.749 119.001 115.102 104.409 122.008 84.022 L 122.008 84.022 C 124.533 89.448 128.828 93.02 133.696 93.02 C 141.463 93.02 147.768 83.93 147.768 72.733 C 147.768 61.537 141.463 52.447 133.696 52.447 C 130.088 52.447 126.795 54.409 124.304 57.636 C 122.297 44.379 115.651 32.764 106.197 24.738 L 106.197 24.738 L 124.46 26.23 Q 119.898 14.371 94.284 17.24 C 93.822 17.036 93.357 16.838 92.888 16.648 Z " fill-rule="evenodd" fill="rgb(92,77,77)"/><path d=" M 40.663 101.285 C 43.634 77.298 56.147 57.287 75.218 57.287 C 94.29 57.287 108.022 77.104 109.773 101.285 C 112.522 139.239 93.121 142.099 74.05 142.099 C 54.978 142.099 35.918 139.597 40.663 101.285 Z " fill="rgb(169,104,81)"/><path d=" M 38.302 61.666 C 38.302 50.919 53.871 57.459 58.729 48.26 C 63.801 38.656 75.218 48.859 75.218 59.606 C 75.218 70.353 66.04 79.078 54.735 79.078 C 43.43 79.078 38.302 72.413 38.302 61.666 Z " fill="rgb(169,104,81)"/><path d=" M 112.135 61.666 C 112.135 50.919 96.565 57.459 91.707 48.26 C 86.635 38.656 75.218 48.859 75.218 59.606 C 75.218 70.353 84.396 79.078 95.701 79.078 C 107.006 79.078 112.135 72.413 112.135 61.666 Z " fill="rgb(169,104,81)"/><ellipse vector-effect="non-scaling-stroke" cx="65.68031392322605" cy="65.07350630465797" rx="6.723397779880685" ry="5.4676949561421715" fill="rgb(33,23,23)"/><ellipse vector-effect="non-scaling-stroke" cx="84.4432844717303" cy="65.07350630465797" rx="6.723397779880685" ry="5.4676949561421715" fill="rgb(33,23,23)"/><ellipse vector-effect="non-scaling-stroke" cx="72.60680758084835" cy="81.90567271187643" rx="2.18901323065883" ry="2.827855212069238" fill="rgb(33,23,23)"/><ellipse vector-effect="non-scaling-stroke" cx="77.39102579764932" cy="81.90567271187643" rx="2.18901323065883" ry="2.827855212069238" fill="rgb(33,23,23)"/><path d=" M 60.9 63.036 C 60.685 62.57 61.024 61.93 61.658 61.606 C 62.291 61.282 62.981 61.398 63.197 61.864 C 63.412 62.33 63.073 62.97 62.439 63.294 C 61.806 63.617 61.116 63.502 60.9 63.036 Z " fill="rgb(235,235,235)"/><path d=" M 79.285 63.036 C 79.069 62.57 79.409 61.93 80.043 61.606 C 80.676 61.282 81.366 61.398 81.582 61.864 C 81.797 62.33 81.458 62.97 80.824 63.294 C 80.19 63.617 79.501 63.502 79.285 63.036 Z " fill="rgb(235,235,235)"/><path d=" M 45.962 117.969 C 46.067 113.051 58.548 125.218 74.05 125.218 C 89.552 125.218 102.242 112.875 102.137 117.969 C 102.073 121.08 90.298 131.374 74.796 131.374 C 59.294 131.374 45.895 121.08 45.962 117.969 Z " fill="rgb(33,23,23)"/></g></g></g></svg>