<?xml version="1.0" encoding="UTF-8" standalone="no"?><!-- Generator: Gravit.io --><svg xmlns="http://www.w3.org/2000/svg" xmlns:xlink="http://www.w3.org/1999/xlink" style="isolation:isolate" viewBox="0 0 16 16" width="16pt" height="16pt"><defs><clipPath id="_clipPath_Rh73K2jQOKDcSJhHDtTXnbLVOw8e9HaD"><rect width="16" height="16"/></clipPath></defs><g clip-path="url(#_clipPath_Rh73K2jQOKDcSJhHDtTXnbLVOw8e9HaD)"><clipPath id="_clipPath_YRCbaDdjVFIxOVdDMgkiCGQ4FmHkow2Y"><rect x="0" y="0" width="16" height="16" transform="matrix(1,0,0,1,0,0)" fill="rgb(255,255,255)"/></clipPath><g clip-path="url(#_clipPath_YRCbaDdjVFIxOVdDMgkiCGQ4FmHkow2Y)"><g><path d=" M 9.778 1.752 Q 9.795 1.75 9.812 1.748 L 12.23 1.484 Q 11.494 0.255 8.514 1.297 L 8.514 1.297 L 8.514 1.297 L 8.514 1.297 Q 8.361 1.35 8.227 1.4 C 8.125 1.393 8.021 1.39 7.918 1.39 C 5.367 1.39 3.239 3.336 2.777 5.908 C 2.536 5.664 2.243 5.521 1.927 5.521 C 1.109 5.521 0.445 6.478 0.445 7.656 L 0.445 7.656 L 0.445 7.656 C 0.445 8.835 1.109 9.792 1.927 9.792 C 2.381 9.792 2.788 9.496 3.059 9.031 C 3.833 11.079 5.718 12.526 7.918 12.526 C 10.184 12.526 12.116 10.99 12.843 8.844 L 12.843 8.844 C 13.109 9.416 13.561 9.792 14.073 9.792 C 14.891 9.792 15.555 8.835 15.555 7.656 C 15.555 6.478 14.891 5.521 14.073 5.521 C 13.693 5.521 13.347 5.727 13.085 6.067 C 12.873 4.671 12.174 3.449 11.179 2.604 L 11.179 2.604 L 13.101 2.761 Q 12.621 1.513 9.925 1.815 C 9.876 1.793 9.827 1.772 9.778 1.752 Z " fill-rule="evenodd" fill="rgb(92,77,77)"/><path d=" M 4.28 10.662 C 4.593 8.137 5.91 6.03 7.918 6.03 C 9.925 6.03 11.371 8.116 11.555 10.662 C 11.844 14.657 9.802 14.958 7.795 14.958 C 5.787 14.958 3.781 14.694 4.28 10.662 Z " fill="rgb(169,104,81)"/><path d=" M 4.032 6.491 C 4.032 5.36 5.671 6.048 6.182 5.08 C 6.716 4.069 7.918 5.143 7.918 6.274 C 7.918 7.406 6.952 8.324 5.762 8.324 C 4.572 8.324 4.032 7.622 4.032 6.491 Z " fill="rgb(169,104,81)"/><path d=" M 11.804 6.491 C 11.804 5.36 10.165 6.048 9.653 5.08 C 9.119 4.069 7.918 5.143 7.918 6.274 C 7.918 7.406 8.884 8.324 10.074 8.324 C 11.264 8.324 11.804 7.622 11.804 6.491 Z " fill="rgb(169,104,81)"/><ellipse vector-effect="non-scaling-stroke" cx="6.913717255076426" cy="6.849842768911365" rx="0.7077260820927043" ry="0.5755468374886501" fill="rgb(33,23,23)"/><ellipse vector-effect="non-scaling-stroke" cx="8.888766786497925" cy="6.849842768911365" rx="0.7077260820927034" ry="0.5755468374886501" fill="rgb(33,23,23)"/><ellipse vector-effect="non-scaling-stroke" cx="7.642821850615616" cy="8.621649759144887" rx="0.23042244533250855" ry="0.2976689696914985" fill="rgb(33,23,23)"/><ellipse vector-effect="non-scaling-stroke" cx="8.146423768173612" cy="8.621649759144887" rx="0.230422445332509" ry="0.2976689696914985" fill="rgb(33,23,23)"/><path d=" M 6.411 6.635 C 6.388 6.586 6.424 6.519 6.49 6.485 C 6.557 6.451 6.63 6.463 6.652 6.512 C 6.675 6.561 6.639 6.628 6.573 6.663 C 6.506 6.697 6.433 6.684 6.411 6.635 Z " fill="rgb(235,235,235)"/><path d=" M 8.346 6.635 C 8.323 6.586 8.359 6.519 8.426 6.485 C 8.492 6.451 8.565 6.463 8.588 6.512 C 8.61 6.561 8.574 6.628 8.508 6.663 C 8.441 6.697 8.369 6.684 8.346 6.635 Z " fill="rgb(235,235,235)"/><path d=" M 4.838 12.418 C 4.849 11.9 6.163 13.181 7.795 13.181 C 9.427 13.181 10.762 11.882 10.751 12.418 C 10.745 12.745 9.505 13.829 7.873 13.829 C 6.241 13.829 4.831 12.745 4.838 12.418 Z " fill="rgb(33,23,23)"/></g></g></g></svg>