<?xml version="1.0" encoding="UTF-8" standalone="no"?><!-- Generator: Gravit.io --><svg xmlns="http://www.w3.org/2000/svg" xmlns:xlink="http://www.w3.org/1999/xlink" style="isolation:isolate" viewBox="0 0 144 144" width="144pt" height="144pt"><defs><clipPath id="_clipPath_pJLu2yMiJVm9M3elsBP5nZclVh0MaJGK"><rect width="144" height="144"/></clipPath></defs><g clip-path="url(#_clipPath_pJLu2yMiJVm9M3elsBP5nZclVh0MaJGK)"><clipPath id="_clipPath_ix0fgGkbMc3G6pIeTbm6wEnw6p7vpSEZ"><rect x="0" y="0" width="144" height="144" transform="matrix(1,0,0,1,0,0)" fill="rgb(255,255,255)"/></clipPath><g clip-path="url(#_clipPath_ix0fgGkbMc3G6pIeTbm6wEnw6p7vpSEZ)"><g><path d=" M 87.999 15.772 Q 88.155 15.751 88.312 15.729 L 110.069 13.354 Q 103.443 2.292 76.629 11.67 L 76.629 11.67 L 76.629 11.67 L 76.629 11.67 Q 75.249 12.153 74.041 12.597 C 73.121 12.539 72.193 12.511 71.259 12.511 C 48.299 12.511 29.153 30.025 24.992 53.17 C 22.826 50.975 20.187 49.687 17.34 49.687 C 9.982 49.687 4.009 58.298 4.009 68.905 L 4.009 68.905 L 4.009 68.905 C 4.009 79.512 9.982 88.124 17.34 88.124 C 21.428 88.124 25.089 85.466 27.534 81.282 C 34.495 99.712 51.459 112.737 71.259 112.737 C 91.657 112.737 109.044 98.914 115.587 79.6 L 115.587 79.6 C 117.979 84.74 122.047 88.124 126.66 88.124 C 134.017 88.124 139.991 79.512 139.991 68.905 C 139.991 58.298 134.017 49.687 126.66 49.687 C 123.241 49.687 120.121 51.546 117.762 54.602 C 115.86 42.043 109.564 31.04 100.608 23.436 L 100.608 23.436 L 117.91 24.85 Q 113.588 13.614 89.322 16.333 C 88.884 16.139 88.443 15.952 87.999 15.772 Z " fill-rule="evenodd" fill="rgb(92,77,77)"/><path d=" M 38.523 95.954 C 41.337 73.23 53.192 54.272 71.259 54.272 C 89.327 54.272 102.337 73.046 103.996 95.954 C 106.599 131.911 88.22 134.62 70.152 134.62 C 52.084 134.62 34.028 132.249 38.523 95.954 Z " fill="rgb(169,104,81)"/><path d=" M 36.286 58.42 C 36.286 48.239 51.036 54.434 55.638 45.72 C 60.443 36.621 71.259 46.287 71.259 56.469 C 71.259 66.65 62.564 74.916 51.854 74.916 C 41.145 74.916 36.286 68.601 36.286 58.42 Z " fill="rgb(169,104,81)"/><path d=" M 106.233 58.42 C 106.233 48.239 91.483 54.434 86.881 45.72 C 82.075 36.621 71.259 46.287 71.259 56.469 C 71.259 66.65 79.954 74.916 90.664 74.916 C 101.374 74.916 106.233 68.601 106.233 58.42 Z " fill="rgb(169,104,81)"/><ellipse vector-effect="non-scaling-stroke" cx="62.223455295687835" cy="61.64858492020228" rx="6.369534738834339" ry="5.179921537397849" fill="rgb(33,23,23)"/><ellipse vector-effect="non-scaling-stroke" cx="79.99890107848132" cy="61.64858492020228" rx="6.369534738834332" ry="5.179921537397849" fill="rgb(33,23,23)"/><ellipse vector-effect="non-scaling-stroke" cx="68.78539665554054" cy="77.59484783230398" rx="2.073802007992583" ry="2.679020727223488" fill="rgb(33,23,23)"/><ellipse vector-effect="non-scaling-stroke" cx="73.3178139135625" cy="77.59484783230398" rx="2.073802007992583" ry="2.679020727223488" fill="rgb(33,23,23)"/><path d=" M 57.695 59.718 C 57.491 59.277 57.812 58.67 58.413 58.364 C 59.013 58.057 59.666 58.167 59.871 58.608 C 60.075 59.049 59.753 59.656 59.153 59.963 C 58.553 60.269 57.899 60.16 57.695 59.718 Z " fill="rgb(235,235,235)"/><path d=" M 75.112 59.718 C 74.908 59.277 75.229 58.67 75.83 58.364 C 76.43 58.057 77.083 58.167 77.288 58.608 C 77.492 59.049 77.17 59.656 76.57 59.963 C 75.97 60.269 75.317 60.16 75.112 59.718 Z " fill="rgb(235,235,235)"/><path d=" M 43.543 111.76 C 43.642 107.101 55.466 118.627 70.152 118.627 C 84.839 118.627 96.861 106.934 96.762 111.76 C 96.701 114.707 85.545 124.46 70.859 124.46 C 56.173 124.46 43.48 114.707 43.543 111.76 Z " fill="rgb(33,23,23)"/></g></g></g></svg>