<?xml version="1.0" encoding="UTF-8" standalone="no"?><!-- Generator: Gravit.io --><svg xmlns="http://www.w3.org/2000/svg" xmlns:xlink="http://www.w3.org/1999/xlink" style="isolation:isolate" viewBox="0 0 32 32" width="32pt" height="32pt"><defs><clipPath id="_clipPath_R94LR0LDbdjHwzrl54uFH9PrnRDtzgwh"><rect width="32" height="32"/></clipPath></defs><g clip-path="url(#_clipPath_R94LR0LDbdjHwzrl54uFH9PrnRDtzgwh)"><clipPath id="_clipPath_ihGBDOC0b9fKRQAZ9YSjBrn1QUwF1nom"><rect x="0" y="0" width="32" height="32" transform="matrix(1,0,0,1,0,0)" fill="rgb(255,255,255)"/></clipPath><g clip-path="url(#_clipPath_ihGBDOC0b9fKRQAZ9YSjBrn1QUwF1nom)"><g><path d=" M 19.555 3.505 Q 19.59 3.5 19.625 3.495 L 24.46 2.967 Q 22.987 0.509 17.029 2.593 L 17.029 2.593 L 17.029 2.593 L 17.029 2.593 Q 16.722 2.701 16.454 2.799 C 16.249 2.787 16.043 2.78 15.835 2.78 C 10.733 2.78 6.478 6.672 5.554 11.816 C 5.072 11.328 4.486 11.041 3.853 11.041 C 2.218 11.041 0.891 12.955 0.891 15.312 L 0.891 15.312 L 0.891 15.312 C 0.891 17.669 2.218 19.583 3.853 19.583 C 4.762 19.583 5.575 18.992 6.119 18.063 C 7.666 22.158 11.435 25.053 15.835 25.053 C 20.368 25.053 24.232 21.981 25.686 17.689 L 25.686 17.689 C 26.217 18.831 27.122 19.583 28.147 19.583 C 29.782 19.583 31.109 17.669 31.109 15.312 C 31.109 12.955 29.782 11.041 28.147 11.041 C 27.387 11.041 26.694 11.455 26.169 12.134 C 25.747 9.343 24.348 6.898 22.357 5.208 L 22.357 5.208 L 26.202 5.522 Q 25.242 3.025 19.849 3.629 C 19.752 3.586 19.654 3.545 19.555 3.505 Z " fill-rule="evenodd" fill="rgb(92,77,77)"/><path d=" M 8.561 21.323 C 9.186 16.273 11.82 12.06 15.835 12.06 C 19.85 12.06 22.742 16.232 23.11 21.323 C 23.689 29.313 19.604 29.916 15.589 29.916 C 11.574 29.916 7.562 29.389 8.561 21.323 Z " fill="rgb(169,104,81)"/><path d=" M 8.063 12.982 C 8.063 10.72 11.341 12.097 12.364 10.16 C 13.432 8.138 15.835 10.286 15.835 12.549 C 15.835 14.811 13.903 16.648 11.523 16.648 C 9.143 16.648 8.063 15.245 8.063 12.982 Z " fill="rgb(169,104,81)"/><path d=" M 23.607 12.982 C 23.607 10.72 20.33 12.097 19.307 10.16 C 18.239 8.138 15.835 10.286 15.835 12.549 C 15.835 14.811 17.768 16.648 20.148 16.648 C 22.528 16.648 23.607 15.245 23.607 12.982 Z " fill="rgb(169,104,81)"/><ellipse vector-effect="non-scaling-stroke" cx="13.827434510152852" cy="13.699685537822731" rx="1.4154521641854085" ry="1.1510936749773002" fill="rgb(33,23,23)"/><ellipse vector-effect="non-scaling-stroke" cx="17.77753357299585" cy="13.699685537822731" rx="1.4154521641854068" ry="1.1510936749773002" fill="rgb(33,23,23)"/><ellipse vector-effect="non-scaling-stroke" cx="15.285643701231233" cy="17.243299518289774" rx="0.4608448906650171" ry="0.595337939382997" fill="rgb(33,23,23)"/><ellipse vector-effect="non-scaling-stroke" cx="16.292847536347224" cy="17.243299518289774" rx="0.460844890665018" ry="0.595337939382997" fill="rgb(33,23,23)"/><path d=" M 12.821 13.271 C 12.776 13.173 12.847 13.038 12.981 12.97 C 13.114 12.902 13.259 12.926 13.305 13.024 C 13.35 13.122 13.279 13.257 13.145 13.325 C 13.012 13.393 12.867 13.369 12.821 13.271 Z " fill="rgb(235,235,235)"/><path d=" M 16.692 13.271 C 16.646 13.173 16.718 13.038 16.851 12.97 C 16.984 12.902 17.13 12.926 17.175 13.024 C 17.22 13.122 17.149 13.257 17.016 13.325 C 16.882 13.393 16.737 13.369 16.692 13.271 Z " fill="rgb(235,235,235)"/><path d=" M 9.676 24.836 C 9.698 23.8 12.326 26.362 15.589 26.362 C 18.853 26.362 21.525 23.763 21.503 24.836 C 21.489 25.49 19.01 27.658 15.746 27.658 C 12.483 27.658 9.662 25.49 9.676 24.836 Z " fill="rgb(33,23,23)"/></g></g></g></svg>