<?xml version="1.0" encoding="UTF-8" standalone="no"?><!-- Generator: Gravit.io --><svg xmlns="http://www.w3.org/2000/svg" xmlns:xlink="http://www.w3.org/1999/xlink" style="isolation:isolate" viewBox="0 0 192 192" width="192pt" height="192pt"><defs><clipPath id="_clipPath_VzwqMN782DNWoDLwhDohtjTBtotNBCiH"><rect width="192" height="192"/></clipPath></defs><g clip-path="url(#_clipPath_VzwqMN782DNWoDLwhDohtjTBtotNBCiH)"><clipPath id="_clipPath_R2w04G3S6N1AxOsyuXtTEWnEoeJfDIC6"><rect x="0" y="0" width="192" height="192" transform="matrix(1,0,0,1,0,0)" fill="rgb(255,255,255)"/></clipPath><g clip-path="url(#_clipPath_R2w04G3S6N1AxOsyuXtTEWnEoeJfDIC6)"><g><path d=" M 117.332 21.03 Q 117.54 21.001 117.75 20.972 L 146.759 17.805 Q 137.924 3.056 102.172 15.56 L 102.172 15.56 L 102.172 15.56 L 102.172 15.56 Q 100.332 16.204 98.722 16.795 C 97.494 16.719 96.258 16.681 95.012 16.681 C 64.398 16.681 38.871 40.033 33.323 70.893 C 30.435 67.967 26.916 66.249 23.121 66.249 C 13.31 66.249 5.345 77.731 5.345 91.874 L 5.345 91.874 L 5.345 91.874 C 5.345 106.017 13.31 117.499 23.121 117.499 C 28.571 117.499 33.453 113.954 36.712 108.376 C 45.994 132.949 68.612 150.317 95.012 150.317 C 122.21 150.317 145.392 131.886 154.115 106.133 L 154.115 106.133 C 157.305 112.987 162.73 117.499 168.879 117.499 C 178.69 117.499 186.655 106.017 186.655 91.874 C 186.655 77.731 178.69 66.249 168.879 66.249 C 164.321 66.249 160.161 68.728 157.016 72.803 C 154.48 56.057 146.086 41.386 134.144 31.247 L 134.144 31.247 L 157.213 33.133 Q 151.451 18.153 119.096 21.777 C 118.512 21.519 117.924 21.269 117.332 21.03 Z " fill-rule="evenodd" fill="rgb(92,77,77)"/><path d=" M 51.364 127.939 C 55.116 97.64 70.922 72.362 95.012 72.362 C 119.103 72.362 136.449 97.395 138.661 127.939 C 142.132 175.881 117.627 179.493 93.536 179.493 C 69.446 179.493 45.371 176.333 51.364 127.939 Z " fill="rgb(169,104,81)"/><path d=" M 48.381 77.893 C 48.381 64.318 68.047 72.579 74.184 60.96 C 80.591 48.828 95.012 61.717 95.012 75.292 C 95.012 88.866 83.419 99.888 69.139 99.888 C 54.859 99.888 48.381 91.468 48.381 77.893 Z " fill="rgb(169,104,81)"/><path d=" M 141.644 77.893 C 141.644 64.318 121.977 72.579 115.841 60.96 C 109.433 48.828 95.012 61.717 95.012 75.292 C 95.012 88.866 106.606 99.888 120.886 99.888 C 135.165 99.888 141.644 91.468 141.644 77.893 Z " fill="rgb(169,104,81)"/><ellipse vector-effect="non-scaling-stroke" cx="82.9646070609171" cy="82.19811322693639" rx="8.492712985112448" ry="6.906562049863794" fill="rgb(33,23,23)"/><ellipse vector-effect="non-scaling-stroke" cx="106.66520143797511" cy="82.19811322693639" rx="8.492712985112448" ry="6.906562049863794" fill="rgb(33,23,23)"/><ellipse vector-effect="non-scaling-stroke" cx="91.7138622073874" cy="103.45979710973863" rx="2.765069343990106" ry="3.5720276362979746" fill="rgb(33,23,23)"/><ellipse vector-effect="non-scaling-stroke" cx="97.75708521808333" cy="103.45979710973863" rx="2.765069343990106" ry="3.5720276362979746" fill="rgb(33,23,23)"/><path d=" M 76.927 79.625 C 76.654 79.036 77.083 78.227 77.884 77.818 C 78.684 77.409 79.555 77.555 79.828 78.144 C 80.1 78.732 79.671 79.542 78.871 79.95 C 78.07 80.359 77.199 80.213 76.927 79.625 Z " fill="rgb(235,235,235)"/><path d=" M 100.149 79.625 C 99.877 79.036 100.306 78.227 101.106 77.818 C 101.907 77.409 102.778 77.555 103.05 78.144 C 103.323 78.732 102.894 79.542 102.093 79.95 C 101.293 80.359 100.422 80.213 100.149 79.625 Z " fill="rgb(235,235,235)"/><path d=" M 58.057 149.013 C 58.19 142.801 73.955 158.17 93.536 158.17 C 113.118 158.17 129.148 142.579 129.016 149.013 C 128.935 152.943 114.061 165.947 94.479 165.947 C 74.897 165.947 57.973 152.943 58.057 149.013 Z " fill="rgb(33,23,23)"/></g></g></g></svg>